<svg width="16" height="12" viewBox="0 0 16 12" fill="none" xmlns="http://www.w3.org/2000/svg">
<path fill-rule="evenodd" clip-rule="evenodd" d="M7.62619 0.734482C7.85492 0.846351 7.99996 1.07874 7.99996 1.33336V10.6667C7.99996 10.9213 7.85492 11.1537 7.62619 11.2656C7.39746 11.3774 7.12499 11.3492 6.924 11.1929L0.923999 6.52626C0.761608 6.39996 0.666626 6.20575 0.666626 6.00003C0.666626 5.7943 0.761608 5.60009 0.923999 5.47379L6.924 0.807124C7.12499 0.650801 7.39746 0.622613 7.62619 0.734482ZM2.41917 6.00003L6.66663 9.3036V2.69645L2.41917 6.00003Z" fill="#3D539B"/>
<path fill-rule="evenodd" clip-rule="evenodd" d="M14.9596 0.734482C15.1883 0.846351 15.3333 1.07874 15.3333 1.33336V10.6667C15.3333 10.9213 15.1883 11.1537 14.9596 11.2656C14.7308 11.3774 14.4584 11.3492 14.2574 11.1929L8.25737 6.52626C8.09498 6.39996 8 6.20575 8 6.00003C8 5.7943 8.09498 5.60009 8.25737 5.47379L14.2574 0.807124C14.4584 0.650801 14.7308 0.622613 14.9596 0.734482ZM9.75255 6.00003L14 9.3036V2.69645L9.75255 6.00003Z" fill="#3D539B"/>
</svg>
