<svg width="16" height="16" viewBox="0 0 16 16" fill="none" xmlns="http://www.w3.org/2000/svg">
<path fill-rule="evenodd" clip-rule="evenodd" d="M8.00008 2.00033C4.68637 2.00033 2.00008 4.68662 2.00008 8.00033C2.00008 11.314 4.68637 14.0003 8.00008 14.0003C11.3138 14.0003 14.0001 11.314 14.0001 8.00033C14.0001 4.68662 11.3138 2.00033 8.00008 2.00033ZM0.666748 8.00033C0.666748 3.95024 3.94999 0.666992 8.00008 0.666992C12.0502 0.666992 15.3334 3.95024 15.3334 8.00033C15.3334 12.0504 12.0502 15.3337 8.00008 15.3337C3.94999 15.3337 0.666748 12.0504 0.666748 8.00033Z" fill="#86898B"/>
<path fill-rule="evenodd" clip-rule="evenodd" d="M8.00008 3.33366C8.36827 3.33366 8.66675 3.63214 8.66675 4.00033V7.5883L10.9649 8.73737C11.2942 8.90203 11.4277 9.30248 11.263 9.6318C11.0984 9.96112 10.6979 10.0946 10.3686 9.92994L7.70194 8.59661C7.47608 8.48368 7.33341 8.25284 7.33341 8.00033V4.00033C7.33341 3.63214 7.63189 3.33366 8.00008 3.33366Z" fill="#86898B"/>
</svg>
