<svg width="16" height="10" viewBox="0 0 16 10" fill="none" xmlns="http://www.w3.org/2000/svg">
<path fill-rule="evenodd" clip-rule="evenodd" d="M15.8047 0.528636C16.0651 0.788986 16.0651 1.2111 15.8047 1.47145L9.47141 7.80478C9.21106 8.06513 8.78895 8.06513 8.5286 7.80478L5.66667 4.94285L1.13807 9.47145C0.877722 9.7318 0.455612 9.7318 0.195262 9.47145C-0.0650874 9.2111 -0.0650874 8.78899 0.195262 8.52864L5.19526 3.52864C5.45561 3.26829 5.87772 3.26829 6.13807 3.52864L9 6.39057L14.8619 0.528636C15.1223 0.268287 15.5444 0.268287 15.8047 0.528636Z" fill="#86898B"/>
<path fill-rule="evenodd" clip-rule="evenodd" d="M10.6667 1.00004C10.6667 0.631851 10.9651 0.333374 11.3333 0.333374H15.3333C15.7015 0.333374 16 0.631851 16 1.00004V5.00004C16 5.36823 15.7015 5.66671 15.3333 5.66671C14.9651 5.66671 14.6667 5.36823 14.6667 5.00004V1.66671H11.3333C10.9651 1.66671 10.6667 1.36823 10.6667 1.00004Z" fill="#86898B"/>
</svg>
