<svg width="14" height="16" viewBox="0 0 14 16" fill="none" xmlns="http://www.w3.org/2000/svg">
<path fill-rule="evenodd" clip-rule="evenodd" d="M2.33331 3.33335C1.96512 3.33335 1.66665 3.63183 1.66665 4.00002V13.3334C1.66665 13.7015 1.96512 14 2.33331 14H11.6666C12.0348 14 12.3333 13.7015 12.3333 13.3334V4.00002C12.3333 3.63183 12.0348 3.33335 11.6666 3.33335H2.33331ZM0.333313 4.00002C0.333313 2.89545 1.22874 2.00002 2.33331 2.00002H11.6666C12.7712 2.00002 13.6666 2.89545 13.6666 4.00002V13.3334C13.6666 14.4379 12.7712 15.3334 11.6666 15.3334H2.33331C1.22874 15.3334 0.333313 14.4379 0.333313 13.3334V4.00002Z" fill="#2998E5"/>
<path fill-rule="evenodd" clip-rule="evenodd" d="M9.66665 0.666687C10.0348 0.666687 10.3333 0.965164 10.3333 1.33335V4.00002C10.3333 4.36821 10.0348 4.66669 9.66665 4.66669C9.29846 4.66669 8.99998 4.36821 8.99998 4.00002V1.33335C8.99998 0.965164 9.29846 0.666687 9.66665 0.666687Z" fill="#2998E5"/>
<path fill-rule="evenodd" clip-rule="evenodd" d="M4.33331 0.666687C4.7015 0.666687 4.99998 0.965164 4.99998 1.33335V4.00002C4.99998 4.36821 4.7015 4.66669 4.33331 4.66669C3.96512 4.66669 3.66665 4.36821 3.66665 4.00002V1.33335C3.66665 0.965164 3.96512 0.666687 4.33331 0.666687Z" fill="#2998E5"/>
<path fill-rule="evenodd" clip-rule="evenodd" d="M0.333313 6.66669C0.333313 6.2985 0.63179 6.00002 0.99998 6.00002H13C13.3682 6.00002 13.6666 6.2985 13.6666 6.66669C13.6666 7.03488 13.3682 7.33335 13 7.33335H0.99998C0.63179 7.33335 0.333313 7.03488 0.333313 6.66669Z" fill="#2998E5"/>
</svg>
