<svg width="16" height="14" viewBox="0 0 16 14" fill="none" xmlns="http://www.w3.org/2000/svg">
<path fill-rule="evenodd" clip-rule="evenodd" d="M5.99999 0.333374C6.28694 0.333374 6.5417 0.516994 6.63244 0.789222L9.99999 10.8919L11.3675 6.78922C11.4583 6.51699 11.713 6.33337 12 6.33337H14.6667C15.0348 6.33337 15.3333 6.63185 15.3333 7.00004C15.3333 7.36823 15.0348 7.66671 14.6667 7.66671H12.4805L10.6324 13.2109C10.5417 13.4831 10.2869 13.6667 9.99999 13.6667C9.71304 13.6667 9.45828 13.4831 9.36753 13.2109L5.99999 3.10823L4.63245 7.21086C4.5417 7.48309 4.28694 7.66671 3.99999 7.66671H1.33332C0.965133 7.66671 0.666656 7.36823 0.666656 7.00004C0.666656 6.63185 0.965133 6.33337 1.33332 6.33337H3.51948L5.36753 0.789222C5.45828 0.516994 5.71304 0.333374 5.99999 0.333374Z" fill="#86898B"/>
</svg>
