<svg width="10" height="16" viewBox="0 0 10 16" fill="none" xmlns="http://www.w3.org/2000/svg">
<path fill-rule="evenodd" clip-rule="evenodd" d="M4.99998 0C5.36817 0 5.66665 0.298477 5.66665 0.666667V15.3333C5.66665 15.7015 5.36817 16 4.99998 16C4.63179 16 4.33331 15.7015 4.33331 15.3333V0.666667C4.33331 0.298477 4.63179 0 4.99998 0Z" fill="#84BC03"/>
<path fill-rule="evenodd" clip-rule="evenodd" d="M1.21199 3.54535C1.7746 2.98274 2.53766 2.66667 3.33331 2.66667H8.33331C8.7015 2.66667 8.99998 2.96514 8.99998 3.33333C8.99998 3.70152 8.7015 4 8.33331 4H3.33331C2.89129 4 2.46736 4.17559 2.1548 4.48816C1.84224 4.80072 1.66665 5.22464 1.66665 5.66667C1.66665 6.10869 1.84224 6.53262 2.1548 6.84518C2.46736 7.15774 2.89129 7.33333 3.33331 7.33333H6.66665C7.4623 7.33333 8.22536 7.6494 8.78797 8.21201C9.35058 8.77462 9.66665 9.53768 9.66665 10.3333C9.66665 11.129 9.35058 11.892 8.78797 12.4547C8.22536 13.0173 7.4623 13.3333 6.66665 13.3333H0.99998C0.63179 13.3333 0.333313 13.0349 0.333313 12.6667C0.333313 12.2985 0.63179 12 0.99998 12H6.66665C7.10867 12 7.5326 11.8244 7.84516 11.5118C8.15772 11.1993 8.33331 10.7754 8.33331 10.3333C8.33331 9.89131 8.15772 9.46738 7.84516 9.15482C7.5326 8.84226 7.10867 8.66667 6.66665 8.66667H3.33331C2.53766 8.66667 1.7746 8.3506 1.21199 7.78799C0.649384 7.22538 0.333313 6.46232 0.333313 5.66667C0.333313 4.87102 0.649384 4.10796 1.21199 3.54535Z" fill="#84BC03"/>
</svg>
