<svg width="16" height="16" viewBox="0 0 16 16" fill="none" xmlns="http://www.w3.org/2000/svg">
<path fill-rule="evenodd" clip-rule="evenodd" d="M8.37377 2.73448C8.6025 2.62261 8.87497 2.6508 9.07596 2.80712L15.076 7.47379C15.2384 7.60009 15.3333 7.7943 15.3333 8.00003C15.3333 8.20575 15.2384 8.39996 15.076 8.52626L9.07596 13.1929C8.87497 13.3493 8.6025 13.3774 8.37377 13.2656C8.14503 13.1537 8 12.9213 8 12.6667V3.33336C8 3.07874 8.14503 2.84635 8.37377 2.73448ZM9.33333 4.69645V11.3036L13.5808 8.00003L9.33333 4.69645Z" fill="#F9D000"/>
<path fill-rule="evenodd" clip-rule="evenodd" d="M1.04042 2.73448C1.26915 2.62261 1.54163 2.6508 1.74262 2.80712L7.74262 7.47379C7.90501 7.60009 7.99999 7.7943 7.99999 8.00003C7.99999 8.20575 7.90501 8.39996 7.74262 8.52626L1.74262 13.1929C1.54163 13.3493 1.26915 13.3774 1.04042 13.2656C0.811691 13.1537 0.666656 12.9213 0.666656 12.6667V3.33336C0.666656 3.07874 0.811691 2.84635 1.04042 2.73448ZM1.99999 4.69645V11.3036L6.24744 8.00003L1.99999 4.69645Z" fill="#F9D000"/>
</svg>
