<svg width="17" height="18" viewBox="0 0 17 18" fill="none" xmlns="http://www.w3.org/2000/svg">
<path fill-rule="evenodd" clip-rule="evenodd" d="M8.00008 4.00033C6.93922 4.00033 5.9218 4.42175 5.17165 5.1719C4.42151 5.92204 4.00008 6.93946 4.00008 8.00033V11.3337C4.00008 11.8058 3.87487 12.2651 3.64282 12.667H12.3573C12.1253 12.2651 12.0001 11.8058 12.0001 11.3337V8.00033C12.0001 6.93946 11.5787 5.92204 10.8285 5.1719C10.0784 4.42175 9.06095 4.00033 8.00008 4.00033ZM14.6667 12.667C14.3131 12.667 13.974 12.5265 13.7239 12.2765C13.4739 12.0264 13.3334 11.6873 13.3334 11.3337V8.00033C13.3334 6.58584 12.7715 5.22928 11.7713 4.22909C10.7711 3.2289 9.41457 2.66699 8.00008 2.66699C6.58559 2.66699 5.22904 3.2289 4.22885 4.22909C3.22865 5.22928 2.66675 6.58584 2.66675 8.00033V11.3337C2.66675 11.6873 2.52627 12.0264 2.27622 12.2765C2.02618 12.5265 1.68704 12.667 1.33341 12.667C0.965225 12.667 0.666748 12.9655 0.666748 13.3337C0.666748 13.7018 0.965225 14.0003 1.33341 14.0003H14.6667V12.667ZM6.51223 15.4237C6.83072 15.2389 7.23867 15.3473 7.42342 15.6658C7.48202 15.7668 7.56613 15.8507 7.66734 15.909C7.76854 15.9673 7.88329 15.998 8.00008 15.998C8.11688 15.998 8.23162 15.9673 8.33282 15.909C8.43403 15.8507 8.51814 15.7668 8.57675 15.6658C8.7615 15.3473 9.16945 15.2389 9.48793 15.4237C9.80641 15.6084 9.91483 16.0164 9.73008 16.3348C9.55427 16.6379 9.30192 16.8895 8.99831 17.0644C8.69469 17.2392 8.35046 17.3313 8.00008 17.3313C7.6497 17.3313 7.30547 17.2392 7.00186 17.0644C6.69824 16.8895 6.44589 16.6379 6.27008 16.3348C6.08533 16.0164 6.19375 15.6084 6.51223 15.4237Z" fill="currentColor"/>
<circle cx="13" cy="4" r="3.5" fill="#2998E5" stroke="white"/>
</svg>
