<svg width="16" height="16" viewBox="0 0 16 16" fill="none" xmlns="http://www.w3.org/2000/svg">
<path fill-rule="evenodd" clip-rule="evenodd" d="M7.80475 4.19526C8.0651 4.45561 8.0651 4.87772 7.80475 5.13807L4.94282 8L7.80475 10.8619C8.0651 11.1223 8.0651 11.5444 7.80475 11.8047C7.5444 12.0651 7.12229 12.0651 6.86194 11.8047L3.52861 8.4714C3.26826 8.21106 3.26826 7.78894 3.52861 7.5286L6.86194 4.19526C7.12229 3.93491 7.5444 3.93491 7.80475 4.19526Z" fill="#86898B"/>
<path fill-rule="evenodd" clip-rule="evenodd" d="M12.4714 4.19526C12.7318 4.45561 12.7318 4.87772 12.4714 5.13807L9.60948 8L12.4714 10.8619C12.7318 11.1223 12.7318 11.5444 12.4714 11.8047C12.2111 12.0651 11.7889 12.0651 11.5286 11.8047L8.19526 8.4714C7.93491 8.21106 7.93491 7.78894 8.19526 7.5286L11.5286 4.19526C11.7889 3.93491 12.2111 3.93491 12.4714 4.19526Z" fill="#86898B"/>
</svg>
