<svg width="32" height="32" viewBox="0 0 32 32" fill="none" xmlns="http://www.w3.org/2000/svg">
<path d="M6.32581 8L0 13.9208L13.9752 32L17.7778 26.7491L20.7743 29.3171L32 12.1909L26.8445 8H18.0792H6.32581Z" fill="#30498A"/>
<path fill-rule="evenodd" clip-rule="evenodd" d="M0 13.9208L6.32581 8L9.29789 19.7063L0 13.9208ZM18.0792 8L9.29789 19.7063L17.7778 26.7491L20.7743 29.3171L24.7944 12.8776L18.0792 8Z" fill="#485F98"/>
<path fill-rule="evenodd" clip-rule="evenodd" d="M9.29789 19.7063L13.9752 32L17.7778 26.7491L9.29789 19.7063ZM24.7944 12.8776L20.7743 29.3171L32 12.1909L24.7944 12.8776Z" fill="#18347D"/>
<path d="M20 6L13.7219 0L8 6H20Z" fill="#2998E5"/>
<path d="M24 6L19.8146 2L16 6H24Z" fill="#51AAE8"/>
</svg>
