<svg width="165" height="48" viewBox="0 0 165 48" fill="none" xmlns="http://www.w3.org/2000/svg">
<path d="M9.48872 12L0 20.8812L20.9627 48L26.6667 40.1236L31.1614 43.9756L48 18.2863L40.2668 12H27.1189H9.48872Z" fill="#30498A"/>
<path fill-rule="evenodd" clip-rule="evenodd" d="M0 20.8812L9.48872 12L13.9468 29.5595L0 20.8812ZM27.1189 12L13.9468 29.5595L26.6667 40.1236L31.1614 43.9756L37.1916 19.3164L27.1189 12Z" fill="#485F98"/>
<path fill-rule="evenodd" clip-rule="evenodd" d="M13.9468 29.5595L20.9627 48L26.6667 40.1236L13.9468 29.5595ZM37.1916 19.3164L31.1614 43.9756L48 18.2863L37.1916 19.3164Z" fill="#18347D"/>
<path d="M30 9L20.5828 0L12 9H30Z" fill="#2998E5"/>
<path d="M36 9L29.7219 3L24 9H36Z" fill="#51AAE8"/>
<path d="M128.253 30.8333C129.136 30.8333 129.956 30.6822 130.713 30.38C131.488 30.0778 132.245 29.6511 132.984 29.1L134.065 30.7C133.723 31.0022 133.317 31.2778 132.849 31.5267C132.398 31.7756 131.902 31.9889 131.362 32.1667C130.839 32.3267 130.289 32.4511 129.712 32.54C129.136 32.6467 128.559 32.7 127.982 32.7C126.703 32.7 125.531 32.5311 124.468 32.1933C123.422 31.8733 122.53 31.4022 121.791 30.78C121.052 30.14 120.476 29.3578 120.061 28.4333C119.665 27.5089 119.466 26.4422 119.466 25.2333C119.466 24.0422 119.655 22.9844 120.034 22.06C120.43 21.1178 120.971 20.3356 121.656 19.7133C122.359 19.0733 123.188 18.5933 124.143 18.2733C125.099 17.9356 126.153 17.7667 127.306 17.7667C128.388 17.7667 129.406 17.9267 130.361 18.2467C131.317 18.5667 132.146 19.0378 132.849 19.66C133.551 20.2644 134.11 21.0022 134.525 21.8733C134.939 22.7444 135.146 23.7311 135.146 24.8333V26.7H123.603C123.819 28.1756 124.333 29.2333 125.144 29.8733C125.973 30.5133 127.009 30.8333 128.253 30.8333ZM127.306 19.5C126.784 19.5 126.297 19.5978 125.846 19.7933C125.396 19.9889 124.999 20.3 124.657 20.7267C124.333 21.1533 124.062 21.7044 123.846 22.38C123.648 23.0556 123.54 23.8733 123.521 24.8333H131.091C131.091 23.9089 130.983 23.1089 130.767 22.4333C130.551 21.7578 130.262 21.2067 129.902 20.78C129.559 20.3356 129.154 20.0156 128.685 19.82C128.235 19.6067 127.775 19.5 127.306 19.5Z" fill="#091620"/>
<path d="M148.932 20.1667H145.688C144.462 20.1667 143.525 20.4956 142.876 21.1533C142.228 21.7933 141.903 22.7533 141.903 24.0333V32.1667H138.118V24.0333C138.118 22.22 138.695 20.8156 139.848 19.82C141.02 18.8067 142.696 18.3 144.877 18.3H148.932V20.1667Z" fill="#091620"/>
<path d="M157.836 20.1667C156.538 20.1667 155.511 20.5667 154.754 21.3667C154.015 22.1489 153.645 23.3489 153.645 24.9667C153.645 26.5844 154.015 27.7933 154.754 28.5933C155.511 29.3756 156.538 29.7667 157.836 29.7667H161.215V20.1667H157.836ZM165 31.9C165 32.7356 164.838 33.4911 164.513 34.1667C164.189 34.86 163.702 35.4556 163.053 35.9533C162.423 36.4511 161.621 36.8333 160.647 37.1C159.692 37.3667 158.575 37.5 157.295 37.5C156.862 37.5 156.394 37.4644 155.889 37.3933C155.403 37.34 154.907 37.2422 154.402 37.1C153.898 36.9756 153.402 36.8067 152.915 36.5933C152.447 36.3978 152.014 36.1667 151.618 35.9L152.564 34.3C153.177 34.7089 153.871 35.0289 154.646 35.26C155.421 35.5089 156.214 35.6333 157.025 35.6333C158.376 35.6333 159.413 35.3311 160.134 34.7267C160.855 34.1222 161.215 33.18 161.215 31.9V31.6333H157.836C156.592 31.6333 155.457 31.4733 154.429 31.1533C153.42 30.8333 152.555 30.38 151.834 29.7933C151.113 29.2067 150.554 28.5044 150.158 27.6867C149.779 26.8689 149.59 25.9622 149.59 24.9667C149.59 23.9711 149.779 23.0644 150.158 22.2467C150.554 21.4289 151.113 20.7267 151.834 20.14C152.555 19.5533 153.42 19.1 154.429 18.78C155.457 18.46 156.592 18.3 157.836 18.3H165V31.9Z" fill="#091620"/>
<path fill-rule="evenodd" clip-rule="evenodd" d="M101.635 32.1667V13.5H105.42V18.3H108.799C110.043 18.3 111.169 18.46 112.178 18.78C113.206 19.1 114.08 19.5622 114.801 20.1667C115.522 20.7711 116.071 21.5 116.45 22.3533C116.846 23.2067 117.045 24.1667 117.045 25.2333C117.045 26.3 116.846 27.26 116.45 28.1133C116.071 28.9667 115.522 29.6956 114.801 30.3C114.08 30.9044 113.206 31.3667 112.178 31.6867C111.169 32.0067 110.043 32.1667 108.799 32.1667H101.635ZM110.475 30.0333C109.971 30.2111 109.412 30.3 108.799 30.3H105.42V20.1667H108.799C109.412 20.1667 109.971 20.2644 110.475 20.46C110.998 20.6378 111.439 20.9311 111.8 21.34C112.178 21.7489 112.467 22.2733 112.665 22.9133C112.881 23.5533 112.989 24.3267 112.989 25.2333C112.989 26.14 112.881 26.9133 112.665 27.5533C112.467 28.1933 112.178 28.7178 111.8 29.1267C111.439 29.5356 110.998 29.8378 110.475 30.0333Z" fill="#091620"/>
<path d="M63.9201 32.1667H60V13.5H63.9201V32.1667Z" fill="#2998E5"/>
<path d="M75.2789 17.7667C75.8557 17.7667 76.4324 17.82 77.0092 17.9267C77.5859 18.0156 78.1356 18.1489 78.6583 18.3267C79.199 18.4867 79.6946 18.6911 80.1452 18.94C80.6138 19.1889 81.0194 19.4644 81.3618 19.7667L80.2804 21.3667C79.5415 20.8156 78.7845 20.3889 78.0095 20.0867C77.2525 19.7844 76.4324 19.6333 75.5493 19.6333C74.9005 19.6333 74.3057 19.74 73.765 19.9533C73.2243 20.1489 72.7557 20.4778 72.3592 20.94C71.9627 21.3844 71.6473 21.9622 71.413 22.6733C71.1967 23.3844 71.0885 24.2378 71.0885 25.2333C71.0885 26.2289 71.1967 27.0822 71.413 27.7933C71.6473 28.5044 71.9717 29.0911 72.3862 29.5533C72.8007 29.9978 73.2964 30.3267 73.8731 30.54C74.4679 30.7356 75.1167 30.8333 75.8196 30.8333C76.7028 30.8333 77.5228 30.6822 78.2798 30.38C79.0548 30.0778 79.8118 29.6511 80.5508 29.1L81.6322 30.7C81.2897 31.0022 80.8842 31.2778 80.4156 31.5267C79.965 31.7756 79.4694 31.9889 78.9287 32.1667C78.406 32.3267 77.8563 32.4511 77.2795 32.54C76.7028 32.6467 76.126 32.7 75.5493 32.7C74.2696 32.7 73.0981 32.5311 72.0348 32.1933C70.9894 31.8733 70.0973 31.4022 69.3583 30.78C68.6193 30.14 68.0426 29.3578 67.6281 28.4333C67.2316 27.5089 67.0333 26.4422 67.0333 25.2333C67.0333 24.0422 67.2316 22.9844 67.6281 22.06C68.0426 21.1178 68.6103 20.3356 69.3313 19.7133C70.0522 19.0733 70.9173 18.5933 71.9266 18.2733C72.9359 17.9356 74.0534 17.7667 75.2789 17.7667Z" fill="#2998E5"/>
<path d="M91.634 30.8333C92.5172 30.8333 93.3372 30.6822 94.0942 30.38C94.8692 30.0778 95.6262 29.6511 96.3651 29.1L97.4465 30.7C97.1041 31.0022 96.6986 31.2778 96.2299 31.5267C95.7794 31.7756 95.2837 31.9889 94.743 32.1667C94.2203 32.3267 93.6706 32.4511 93.0939 32.54C92.5172 32.6467 91.9404 32.7 91.3637 32.7C90.084 32.7 88.9125 32.5311 87.8491 32.1933C86.8038 31.8733 85.9116 31.4022 85.1727 30.78C84.4337 30.14 83.857 29.3578 83.4424 28.4333C83.0459 27.5089 82.8477 26.4422 82.8477 25.2333C82.8477 24.0422 83.0369 22.9844 83.4154 22.06C83.8119 21.1178 84.3526 20.3356 85.0375 19.7133C85.7404 19.0733 86.5695 18.5933 87.5247 18.2733C88.4799 17.9356 89.5343 17.7667 90.6878 17.7667C91.7692 17.7667 92.7875 17.9267 93.7427 18.2467C94.698 18.5667 95.527 19.0378 96.2299 19.66C96.9329 20.2644 97.4916 21.0022 97.9061 21.8733C98.3206 22.7444 98.5279 23.7311 98.5279 24.8333V26.7H86.984C87.2003 28.1756 87.714 29.2333 88.525 29.8733C89.3541 30.5133 90.3904 30.8333 91.634 30.8333ZM90.6878 19.5C90.1651 19.5 89.6785 19.5978 89.2279 19.7933C88.7773 19.9889 88.3808 20.3 88.0384 20.7267C87.7139 21.1533 87.4436 21.7044 87.2273 22.38C87.0291 23.0556 86.9209 23.8733 86.9029 24.8333H94.4727C94.4727 23.9089 94.3645 23.1089 94.1483 22.4333C93.932 21.7578 93.6436 21.2067 93.2831 20.78C92.9407 20.3356 92.5352 20.0156 92.0666 19.82C91.616 19.6067 91.1564 19.5 90.6878 19.5Z" fill="#2998E5"/>
</svg>
