<svg width="14" height="10" viewBox="0 0 14 10" fill="none" xmlns="http://www.w3.org/2000/svg">
<path d="M13.0002 1.66672H4.3335C3.9335 1.66672 3.66683 1.40006 3.66683 1.00006C3.66683 0.600056 3.9335 0.33339 4.3335 0.33339H13.0002C13.4002 0.33339 13.6668 0.600056 13.6668 1.00006C13.6668 1.40006 13.4002 1.66672 13.0002 1.66672Z" fill="currentColor"/>
<path d="M13.0002 5.66672H4.3335C3.9335 5.66672 3.66683 5.40006 3.66683 5.00006C3.66683 4.60006 3.9335 4.33339 4.3335 4.33339H13.0002C13.4002 4.33339 13.6668 4.60006 13.6668 5.00006C13.6668 5.40006 13.4002 5.66672 13.0002 5.66672Z" fill="currentColor"/>
<path d="M13.0002 9.66672H4.3335C3.9335 9.66672 3.66683 9.40006 3.66683 9.00006C3.66683 8.60006 3.9335 8.33339 4.3335 8.33339H13.0002C13.4002 8.33339 13.6668 8.60006 13.6668 9.00006C13.6668 9.40006 13.4002 9.66672 13.0002 9.66672Z" fill="currentColor"/>
<path d="M1.00016 1.66672C0.933496 1.66672 0.933496 1.66672 0.866829 1.66672C0.800163 1.66672 0.800163 1.66672 0.733496 1.60006C0.666829 1.60006 0.666829 1.53339 0.600163 1.53339C0.533496 1.53339 0.533496 1.46672 0.533496 1.46672C0.466829 1.40006 0.400163 1.33339 0.400163 1.26672C0.333496 1.20006 0.333496 1.06672 0.333496 1.00006C0.333496 0.93339 0.333496 0.800056 0.400163 0.73339C0.466829 0.666723 0.466829 0.600057 0.533496 0.53339C0.733496 0.33339 1.00016 0.266723 1.26683 0.400056C1.3335 0.466723 1.40016 0.466723 1.46683 0.53339C1.60016 0.666723 1.66683 0.800056 1.66683 1.00006C1.66683 1.20006 1.60016 1.33339 1.46683 1.46672C1.3335 1.60006 1.20016 1.66672 1.00016 1.66672Z" fill="currentColor"/>
<path d="M1.00016 5.66672C0.800163 5.66672 0.666829 5.60006 0.533496 5.46672C0.400163 5.33339 0.333496 5.20006 0.333496 5.00006C0.333496 4.93339 0.333496 4.93339 0.333496 4.86672C0.333496 4.80006 0.333496 4.80006 0.400163 4.73339C0.400163 4.66672 0.466829 4.66672 0.466829 4.60006C0.466829 4.53339 0.533496 4.53339 0.533496 4.53339C0.600163 4.46672 0.666829 4.40006 0.733496 4.40006C1.00016 4.26672 1.26683 4.33339 1.46683 4.53339L1.5335 4.60006C1.5335 4.66672 1.60016 4.66672 1.60016 4.73339C1.60016 4.80006 1.60016 4.80006 1.66683 4.86672C1.66683 4.93339 1.66683 4.93339 1.66683 5.00006C1.66683 5.20006 1.60016 5.33339 1.46683 5.46672C1.3335 5.60006 1.20016 5.66672 1.00016 5.66672Z" fill="currentColor"/>
<path d="M1.00016 9.66672C0.800163 9.66672 0.666829 9.60006 0.533496 9.46672C0.400163 9.33339 0.333496 9.20006 0.333496 9.00006C0.333496 8.93339 0.333496 8.80006 0.400163 8.73339C0.466829 8.66672 0.466829 8.60006 0.533496 8.53339C0.800163 8.26672 1.20016 8.26672 1.46683 8.53339C1.60016 8.66672 1.66683 8.80006 1.66683 9.00006C1.66683 9.20006 1.60016 9.33339 1.46683 9.46672C1.3335 9.60006 1.20016 9.66672 1.00016 9.66672Z" fill="currentColor"/>
</svg>
