<svg width="12" height="16" viewBox="0 0 12 16" fill="none" xmlns="http://www.w3.org/2000/svg">
<path fill-rule="evenodd" clip-rule="evenodd" d="M0.585786 1.25241C0.960859 0.87734 1.46957 0.666626 2 0.666626H7.33333C7.51014 0.666626 7.67971 0.736864 7.80474 0.861888L11.8047 4.86189C11.9298 4.98691 12 5.15648 12 5.33329V13.3333C12 13.8637 11.7893 14.3724 11.4142 14.7475C11.0391 15.1226 10.5304 15.3333 10 15.3333H2C1.46957 15.3333 0.960859 15.1226 0.585786 14.7475C0.210714 14.3724 0 13.8637 0 13.3333V2.66663C0 2.13619 0.210714 1.62749 0.585786 1.25241ZM2 1.99996C1.82319 1.99996 1.65362 2.0702 1.5286 2.19522C1.40357 2.32025 1.33333 2.48981 1.33333 2.66663V13.3333C1.33333 13.5101 1.40357 13.6797 1.5286 13.8047C1.65362 13.9297 1.82319 14 2 14H10C10.1768 14 10.3464 13.9297 10.4714 13.8047C10.5964 13.6797 10.6667 13.5101 10.6667 13.3333V5.60943L7.05719 1.99996H2Z" fill="currentColor"/>
<path fill-rule="evenodd" clip-rule="evenodd" d="M7.33333 0.666626C7.70152 0.666626 8 0.965103 8 1.33329V4.66663H11.3333C11.7015 4.66663 12 4.9651 12 5.33329C12 5.70148 11.7015 5.99996 11.3333 5.99996H7.33333C6.96514 5.99996 6.66667 5.70148 6.66667 5.33329V1.33329C6.66667 0.965103 6.96514 0.666626 7.33333 0.666626Z" fill="currentColor"/>
<path fill-rule="evenodd" clip-rule="evenodd" d="M2.66667 8.66663C2.66667 8.29844 2.96514 7.99996 3.33333 7.99996H8.66667C9.03486 7.99996 9.33333 8.29844 9.33333 8.66663C9.33333 9.03481 9.03486 9.33329 8.66667 9.33329H3.33333C2.96514 9.33329 2.66667 9.03481 2.66667 8.66663Z" fill="currentColor"/>
<path fill-rule="evenodd" clip-rule="evenodd" d="M2.66667 11.3333C2.66667 10.9651 2.96514 10.6666 3.33333 10.6666H8.66667C9.03486 10.6666 9.33333 10.9651 9.33333 11.3333C9.33333 11.7015 9.03486 12 8.66667 12H3.33333C2.96514 12 2.66667 11.7015 2.66667 11.3333Z" fill="currentColor"/>
<path fill-rule="evenodd" clip-rule="evenodd" d="M2.66667 5.99996C2.66667 5.63177 2.96514 5.33329 3.33333 5.33329H4.66667C5.03486 5.33329 5.33333 5.63177 5.33333 5.99996C5.33333 6.36815 5.03486 6.66663 4.66667 6.66663H3.33333C2.96514 6.66663 2.66667 6.36815 2.66667 5.99996Z" fill="currentColor"/>
</svg>
