<svg width="16" height="12" viewBox="0 0 16 12" fill="none" xmlns="http://www.w3.org/2000/svg">
<path d="M10.4337 4.85413C10.5192 5.18527 10.8179 5.41663 11.1599 5.41663H11.9999C12.6851 5.41663 13.3421 5.6888 13.8266 6.17327C14.3111 6.65774 14.5832 7.31482 14.5832 7.99996C14.5832 8.6851 14.3111 9.34218 13.8266 9.82665C13.3421 10.3111 12.6851 10.5833 11.9999 10.5833H5.99991H5.99935C5.14197 10.5839 4.3016 10.3441 3.57373 9.89096C2.84586 9.43785 2.25967 8.78966 1.88179 8.02004C1.5039 7.25043 1.34946 6.39025 1.43602 5.53725C1.52258 4.68424 1.84666 3.87262 2.37144 3.19461C2.89623 2.51659 3.60067 1.99936 4.40473 1.7017C5.20878 1.40405 6.08021 1.33789 6.91998 1.51074C7.75976 1.6836 8.53422 2.08854 9.15535 2.67956C9.77648 3.27058 10.2194 4.02397 10.4337 4.85413Z" stroke="currentColor" stroke-width="1.5" stroke-linecap="round" stroke-linejoin="round"/>
</svg>
