<svg width="16" height="16" viewBox="0 0 16 16" fill="none" xmlns="http://www.w3.org/2000/svg">
<path fill-rule="evenodd" clip-rule="evenodd" d="M2.66675 2.66683C2.29856 2.66683 2.00008 2.96531 2.00008 3.3335V10.0002C2.00008 10.3684 2.29856 10.6668 2.66675 10.6668H13.3334C13.7016 10.6668 14.0001 10.3684 14.0001 10.0002V3.3335C14.0001 2.96531 13.7016 2.66683 13.3334 2.66683H2.66675ZM0.666748 3.3335C0.666748 2.22893 1.56218 1.3335 2.66675 1.3335H13.3334C14.438 1.3335 15.3334 2.22893 15.3334 3.3335V10.0002C15.3334 11.1047 14.438 12.0002 13.3334 12.0002H2.66675C1.56218 12.0002 0.666748 11.1047 0.666748 10.0002V3.3335Z" fill="currentColor"/>
<path fill-rule="evenodd" clip-rule="evenodd" d="M4.66675 14.0002C4.66675 13.632 4.96522 13.3335 5.33341 13.3335H10.6667C11.0349 13.3335 11.3334 13.632 11.3334 14.0002C11.3334 14.3684 11.0349 14.6668 10.6667 14.6668H5.33341C4.96522 14.6668 4.66675 14.3684 4.66675 14.0002Z" fill="currentColor"/>
<path fill-rule="evenodd" clip-rule="evenodd" d="M7.99992 10.6665C8.36811 10.6665 8.66659 10.965 8.66659 11.3332V13.9998C8.66659 14.368 8.36811 14.6665 7.99992 14.6665C7.63173 14.6665 7.33325 14.368 7.33325 13.9998V11.3332C7.33325 10.965 7.63173 10.6665 7.99992 10.6665Z" fill="currentColor"/>
<path fill-rule="evenodd" clip-rule="evenodd" d="M11.8047 4.19526C12.0651 4.45561 12.0651 4.87772 11.8047 5.13807L8.4714 8.4714C8.34638 8.59643 8.17681 8.66667 8 8.66667C7.82319 8.66667 7.65362 8.59643 7.5286 8.4714L6.66667 7.60948L5.13807 9.13807C4.87772 9.39842 4.45561 9.39842 4.19526 9.13807C3.93491 8.87772 3.93491 8.45561 4.19526 8.19526L6.19526 6.19526C6.45561 5.93491 6.87772 5.93491 7.13807 6.19526L8 7.05719L10.8619 4.19526C11.1223 3.93491 11.5444 3.93491 11.8047 4.19526Z" fill="currentColor"/>
</svg>
